<?xml version="1.0" encoding="utf-8"?>
<!-- Generator: Adobe Illustrator 17.1.0, SVG Export Plug-In . SVG Version: 6.00 Build 0)  -->
<!DOCTYPE svg PUBLIC "-//W3C//DTD SVG 1.1//EN" "http://www.w3.org/Graphics/SVG/1.1/DTD/svg11.dtd">
<svg version="1.1" id="Layer_1" xmlns="http://www.w3.org/2000/svg" xmlns:xlink="http://www.w3.org/1999/xlink" x="0px" y="0px"
	 viewBox="0 0 214.367 17.941" enable-background="new 0 0 214.367 17.941" xml:space="preserve">
<g>
	<path fill="#FFFFFF" d="M0,0h1.326l4.707,15.574V0h1.039v17.941H5.746L1.041,2.34v15.601H0V0z"/>
	<path fill="#FFFFFF" d="M18.512,16.173V1.768L20.279,0h3.432l1.769,1.768v14.405l-1.769,1.768h-3.432L18.512,16.173z
		 M23.219,17.005l1.195-1.196V2.132l-1.195-1.196h-2.445l-1.195,1.196v13.677l1.195,1.196H23.219z"/>
	<path fill="#FFFFFF" d="M35.619,0h1.094l2.625,16.927L41.938,0h1.041l-2.912,17.941h-1.535L35.619,0z"/>
	<path fill="#FFFFFF" d="M53.377,0h5.799v0.936h-4.732V8.45h4.42v0.936h-4.42v7.619h4.783v0.936h-5.85V0z"/>
	<path fill="#FFFFFF" d="M70.225,0h1.611l3.537,16.328L78.832,0h1.664v17.941H79.43V1.43l-3.51,16.511h-1.172L71.213,1.43v16.511
		h-0.988V0z"/>
	<path fill="#FFFFFF" d="M92.195,0h5.096l1.768,1.768v5.356L97.604,8.58l1.455,1.456v6.137l-1.768,1.768h-5.096V0z M96.641,8.112
		l1.352-1.352V2.132l-1.195-1.196H93.26v7.177H96.641z M96.797,17.005l1.195-1.196V10.4l-1.326-1.326H93.26v7.931H96.797z"/>
	<path fill="#FFFFFF" d="M110.369,0h5.799v0.936h-4.732V8.45h4.42v0.936h-4.42v7.619h4.783v0.936h-5.85V0z"/>
	<path fill="#FFFFFF" d="M127.217,0h4.992l1.768,1.768v6.188l-1.664,1.664l1.717,8.32h-1.092l-1.664-8.242h-2.99v8.242h-1.066V0z
		 M131.689,8.814l1.223-1.223v-5.46l-1.197-1.196h-3.432v7.879H131.689z"/>
	<path fill="#FFFFFF" d="M156.883,10.271l1.533-1.534h2.99l0.832-0.832V2.132l-1.195-1.196h-1.898l-1.195,1.196v2.184h-1.066V1.768
		L158.65,0h2.887l1.768,1.768v6.501l-1.533,1.533h-2.99l-0.832,0.832v6.371h5.252v0.936h-6.318V10.271z"/>
	<path fill="#FFFFFF" d="M173.963,16.173V1.768L175.732,0h3.432l1.768,1.768v14.405l-1.768,1.768h-3.432L173.963,16.173z
		 M178.67,17.005l1.195-1.196V2.132l-1.195-1.196h-2.443l-1.197,1.196v13.677l1.197,1.196H178.67z"/>
	<path fill="#FFFFFF" d="M191.332,17.057h2.574V0.884h-2.574V0h3.639v17.057h2.289v0.884h-5.928V17.057z"/>
	<path fill="#FFFFFF" d="M212.053,12.61h-5.693v-0.78L208.465,0h1.066l-2.002,11.674h4.523V0h1.066v11.674h1.248v0.937h-1.248v5.33
		h-1.066V12.61z"/>
</g>
</svg>
