<?xml version="1.0" encoding="utf-8"?>
<!-- Generator: Adobe Illustrator 17.1.0, SVG Export Plug-In . SVG Version: 6.00 Build 0)  -->
<!DOCTYPE svg PUBLIC "-//W3C//DTD SVG 1.1//EN" "http://www.w3.org/Graphics/SVG/1.1/DTD/svg11.dtd">
<svg version="1.1" id="Layer_1" xmlns="http://www.w3.org/2000/svg" xmlns:xlink="http://www.w3.org/1999/xlink" x="0px" y="0px"
	 viewBox="0 0 332.817 14.215" enable-background="new 0 0 332.817 14.215" xml:space="preserve">
<g>
	<g>
		<path fill="#FFFFFF" d="M0,13.082h2.884V1.133H0V0h4.924l12.855,13.206V1.133h-3.708V0h7.684v1.133h-2.678v13.082h-2.039
			L4.182,1.03v12.052H7.89v1.133H0V13.082z"/>
		<path fill="#FFFFFF" d="M30.115,11.31V2.905L33.02,0h11.702l2.905,2.905v8.406l-2.905,2.905H33.02L30.115,11.31z M44.083,13.082
			l2.246-2.246V3.379l-2.246-2.246H33.659l-2.246,2.246v7.458l2.246,2.246H44.083z"/>
		<path fill="#FFFFFF" d="M57.945,1.133h-2.369V0h7.726v1.133h-3.956l7.045,12.237l7.087-12.237h-3.956V0h7.622v1.133h-2.369
			l-7.582,13.082h-1.71L57.945,1.133z"/>
		<path fill="#FFFFFF" d="M84.475,13.082h2.884V1.133h-2.884V0h18.026v4.079h-1.174V1.133h-12.67V6.51h11.887v1.133H88.658v5.439
			h12.69v-3.029h1.174v4.162H84.475V13.082z"/>
		<path fill="#FFFFFF" d="M111.089,13.082h2.884V1.133h-2.884V0h4.903l8.509,13.103L132.988,0h4.924v1.133h-2.884v11.949h2.884
			v1.133h-8.096v-1.133h3.915V0.989l-8.447,12.979h-1.627L115.251,1.03v12.052h3.935v1.133h-8.097V13.082z"/>
		<path fill="#FFFFFF" d="M145.242,13.082h2.884V1.133h-2.884V0h16.605l2.492,2.493v2.802l-1.504,1.504l1.607,1.607v3.317
			l-2.493,2.493h-16.708V13.082z M161.702,6.263l1.339-1.339V2.966l-1.833-1.833h-11.784v5.13H161.702z M161.31,13.082l1.834-1.834
			V8.776l-1.381-1.381h-12.34v5.686H161.31z"/>
		<path fill="#FFFFFF" d="M172.947,13.082h2.884V1.133h-2.884V0h18.026v4.079h-1.174V1.133h-12.67V6.51h11.887v1.133h-11.887v5.439
			h12.69v-3.029h1.175v4.162h-18.047V13.082z"/>
		<path fill="#FFFFFF" d="M199.561,13.082h2.884V1.133h-2.884V0h16.543l2.493,2.493v2.761l-2.06,2.06l2.06,2.06v3.152l0.556,0.556
			h1.545v1.133h-2.184L217.299,13V9.847l-1.855-1.854h-11.701v5.089h4.12v1.133h-8.303V13.082z M215.197,6.86l2.081-2.081V2.946
			l-1.813-1.813h-11.722V6.86H215.197z"/>
		<path fill="#FFFFFF" d="M243.374,8.817l2.121-2.122h11.826l1.463-1.463V2.987l-1.854-1.854h-10.548l-1.628,1.628v1.071h-1.298
			V2.287L245.743,0h11.825l2.514,2.513v3.193l-2.122,2.122h-11.825l-1.463,1.463v3.791h15.451v1.133h-16.749V8.817z"/>
		<path fill="#FFFFFF" d="M269.617,11.31V2.905L272.522,0h11.702l2.905,2.905v8.406l-2.905,2.905h-11.702L269.617,11.31z
			 M283.585,13.082l2.246-2.246V3.379l-2.246-2.246h-10.424l-2.246,2.246v7.458l2.246,2.246H283.585z"/>
		<path fill="#FFFFFF" d="M295.798,13.082h5.295V1.133h-5.295V0h6.593v13.082h5.13v1.133h-11.723V13.082z"/>
		<path fill="#FFFFFF" d="M325.338,13.082h3.296V10.26h-14.772V9.394L319.034,0h1.339l-4.986,9.168h13.247V0h1.298v9.168h2.885
			v1.092h-2.885v2.822h2.885v1.133h-7.478V13.082z"/>
	</g>
</g>
</svg>
