<?xml version="1.0" encoding="utf-8"?>
<!-- Generator: Adobe Illustrator 17.1.0, SVG Export Plug-In . SVG Version: 6.00 Build 0)  -->
<!DOCTYPE svg PUBLIC "-//W3C//DTD SVG 1.1//EN" "http://www.w3.org/Graphics/SVG/1.1/DTD/svg11.dtd">
<svg version="1.1" id="Layer_1" xmlns="http://www.w3.org/2000/svg" xmlns:xlink="http://www.w3.org/1999/xlink" x="0px" y="0px"
	 viewBox="0 0 25.184 24.561" enable-background="new 0 0 25.184 24.561" xml:space="preserve">
<path fill="#D0D8DC" d="M12.592,0C5.639,0,0,5.638,0,12.595c0,5.561,3.605,10.28,8.611,11.946c0.631,0.114,0.859-0.274,0.859-0.607
	c0-0.299-0.01-1.091-0.017-2.143c-3.502,0.761-4.24-1.687-4.24-1.687c-0.572-1.453-1.398-1.84-1.398-1.84
	C2.672,17.481,3.9,17.497,3.9,17.497c1.266,0.089,1.93,1.296,1.93,1.296c1.123,1.926,2.947,1.368,3.666,1.047
	c0.113-0.814,0.438-1.367,0.797-1.682c-2.795-0.317-5.734-1.402-5.734-6.226c0-1.372,0.49-2.498,1.295-3.376
	c-0.129-0.32-0.561-1.6,0.123-3.334c0,0,1.057-0.339,3.463,1.292c1.004-0.28,2.082-0.421,3.154-0.426
	c1.068,0.005,2.145,0.145,3.15,0.426c2.406-1.631,3.461-1.292,3.461-1.292c0.686,1.734,0.254,3.014,0.125,3.334
	c0.807,0.878,1.293,2.004,1.293,3.376c0,4.839-2.943,5.903-5.748,6.216c0.451,0.388,0.856,1.155,0.856,2.33
	c0,1.684-0.016,3.042-0.016,3.455c0,0.336,0.226,0.726,0.865,0.604c4.998-1.668,8.604-6.385,8.604-11.943
	C25.184,5.638,19.547,0,12.592,0"/>
</svg>
