<?xml version="1.0" encoding="utf-8"?>
<!-- Generator: Adobe Illustrator 17.1.0, SVG Export Plug-In . SVG Version: 6.00 Build 0)  -->
<!DOCTYPE svg PUBLIC "-//W3C//DTD SVG 1.1//EN" "http://www.w3.org/Graphics/SVG/1.1/DTD/svg11.dtd">
<svg version="1.1" id="Layer_1" xmlns="http://www.w3.org/2000/svg" xmlns:xlink="http://www.w3.org/1999/xlink" x="0px" y="0px"
	 viewBox="0 0 27.32 27.493" enable-background="new 0 0 27.32 27.493" xml:space="preserve">
<g>
	<path fill="#D0D8DC" d="M13.082,1.303c0.229,0.142,0.482,0.345,0.766,0.616c0.271,0.281,0.537,0.629,0.799,1.039
		c0.25,0.388,0.471,0.844,0.664,1.374c0.16,0.527,0.238,1.146,0.238,1.85c-0.021,1.291-0.307,2.323-0.855,3.1
		c-0.27,0.377-0.553,0.722-0.856,1.039c-0.334,0.316-0.689,0.641-1.064,0.969c-0.215,0.223-0.414,0.476-0.596,0.758
		c-0.215,0.294-0.324,0.634-0.324,1.021c0,0.378,0.111,0.687,0.332,0.935c0.188,0.233,0.369,0.44,0.547,0.616l1.225,1.004
		c0.762,0.624,1.428,1.309,2.002,2.06c0.541,0.765,0.822,1.761,0.846,2.993c0,1.752-0.773,3.3-2.318,4.652
		c-1.6,1.398-3.914,2.118-6.934,2.166c-2.531-0.023-4.418-0.563-5.666-1.616C0.629,24.891,0,23.714,0,22.342
		c0-0.667,0.203-1.412,0.615-2.233c0.394-0.818,1.115-1.54,2.156-2.162c1.168-0.666,2.398-1.111,3.686-1.335
		c1.275-0.187,2.332-0.293,3.174-0.316c-0.26-0.343-0.492-0.708-0.695-1.097C8.697,14.82,8.58,14.364,8.58,13.834
		c0-0.319,0.045-0.586,0.135-0.796c0.078-0.226,0.154-0.431,0.221-0.62c-0.41,0.046-0.797,0.069-1.16,0.069
		c-1.922-0.024-3.387-0.629-4.395-1.814C2.324,9.569,1.797,8.283,1.797,6.816c0-1.773,0.748-3.382,2.242-4.825
		c1.025-0.846,2.094-1.396,3.199-1.655C8.334,0.111,9.359,0,10.318,0h7.221l-2.231,1.303H13.082z M14.477,22.087
		c0-0.916-0.299-1.715-0.896-2.395c-0.633-0.646-1.621-1.438-2.965-2.38c-0.232-0.024-0.502-0.034-0.812-0.034
		c-0.182-0.024-0.654,0-1.412,0.069c-0.748,0.107-1.514,0.276-2.295,0.512c-0.184,0.071-0.441,0.177-0.775,0.317
		c-0.334,0.152-0.672,0.37-1.018,0.652c-0.334,0.293-0.615,0.656-0.846,1.093c-0.266,0.457-0.395,1.009-0.395,1.655
		c0,1.27,0.572,2.314,1.723,3.136c1.092,0.821,2.586,1.245,4.484,1.267c1.701-0.022,3-0.399,3.896-1.126
		C14.041,24.136,14.477,23.215,14.477,22.087z M9.443,11.503c0.951-0.035,1.742-0.377,2.375-1.025
		c0.307-0.458,0.504-0.929,0.59-1.411c0.053-0.483,0.08-0.888,0.08-1.218c0-1.423-0.365-2.859-1.094-4.306
		c-0.342-0.692-0.791-1.26-1.348-1.694c-0.57-0.41-1.225-0.629-1.963-0.651C7.106,1.22,6.291,1.614,5.643,2.379
		c-0.547,0.8-0.809,1.695-0.783,2.683c0,1.306,0.381,2.664,1.145,4.077c0.371,0.657,0.848,1.216,1.434,1.676
		C8.021,11.273,8.691,11.503,9.443,11.503z"/>
	<polygon fill="#D0D8DC" points="27.32,3.945 23.531,3.945 23.531,0.155 21.697,0.155 21.697,3.945 17.908,3.945 17.908,5.78 
		21.697,5.78 21.697,9.567 23.531,9.567 23.531,5.78 27.32,5.78 	"/>
</g>
</svg>
