<?xml version="1.0" encoding="utf-8"?>
<!-- Generator: Adobe Illustrator 16.0.0, SVG Export Plug-In . SVG Version: 6.00 Build 0)  -->
<!DOCTYPE svg PUBLIC "-//W3C//DTD SVG 1.1//EN" "http://www.w3.org/Graphics/SVG/1.1/DTD/svg11.dtd">
<svg version="1.1" id="Layer_1" xmlns="http://www.w3.org/2000/svg" xmlns:xlink="http://www.w3.org/1999/xlink" x="0px" y="0px"
	 width="491.279px" height="32.504px" viewBox="0 0 491.279 32.504" enable-background="new 0 0 491.279 32.504"
	 xml:space="preserve">
<g>
	<g opacity="0.25">
		<defs>
			<rect id="SVGID_57_" x="-299.879" y="-383.668" opacity="0.25" width="129.341" height="415.56"/>
		</defs>
		<clipPath id="SVGID_2_">
			<use xlink:href="#SVGID_57_"  overflow="visible"/>
		</clipPath>
		<g opacity="0.75" clip-path="url(#SVGID_2_)">
			<polygon opacity="0.25" fill="#90A4AE" points="60.438,54.556 60.438,-14.727 120.438,-49.372 120.438,19.916 			"/>
			<polygon opacity="0.25" fill="#90A4AE" points="315.434,28.576 315.434,-40.707 255.437,-75.352 255.437,-6.064 			"/>
			<polygon opacity="0.25" fill="#90A4AE" points="135.438,19.865 195.442,-14.77 255.442,19.872 195.434,54.511 			"/>
			<polygon opacity="0.25" fill="#90A4AE" points="-179.569,-49.384 -59.562,-118.655 60.438,-49.372 -59.575,19.907 			"/>
			<polygon opacity="0.25" fill="#90A4AE" points="165.438,2.543 195.44,-14.774 225.44,2.546 195.437,19.865 			"/>
			<polygon opacity="0.25" fill="#90A4AE" points="420.442,19.918 480.444,-14.717 540.444,19.925 480.436,54.562 			"/>
		</g>
		<g opacity="0.75" clip-path="url(#SVGID_2_)">
			<polygon opacity="0.5" fill="#90A4AE" points="-59.558,54.562 -59.558,-14.722 0.44,-49.368 0.44,19.92 			"/>
		</g>
		<g opacity="0.75" clip-path="url(#SVGID_2_)">
			<polygon opacity="0.75" fill="#90A4AE" points="195.437,19.865 195.437,-49.418 135.438,-84.063 135.438,-14.775 			"/>
			<polygon opacity="0.75" fill="#90A4AE" points="315.434,28.576 315.434,-40.707 375.433,-75.352 375.433,-6.064 			"/>
			<polygon opacity="0.75" fill="#90A4AE" points="0.44,19.915 0.44,-14.727 -29.558,-32.049 -29.558,2.594 			"/>
			<polygon opacity="0.75" fill="#90A4AE" points="420.44,54.561 420.44,19.92 390.442,2.597 390.442,37.24 			"/>
		</g>
	</g>
</g>
<g>
	<path fill="#FFFFFF" d="M13.229,7.281h1.064v8.502h4.576V7.281h1.066v17.941h-1.066V16.85h-4.576v8.373h-1.064V7.281z"/>
	<path fill="#FFFFFF" d="M33.455,7.281h1.664l3.094,17.941h-1.092l-0.963-5.643h-3.848l-0.936,5.643h-1.041L33.455,7.281z
		 M32.467,18.617h3.537L34.262,8.035L32.467,18.617z"/>
	<path fill="#FFFFFF" d="M48.354,23.455V9.049l1.768-1.768h2.99l1.768,1.768v2.887h-1.064V9.414l-1.197-1.197h-2.002L49.42,9.414
		V23.09l1.195,1.197h2.002l1.197-1.197v-2.625h1.064v2.99l-1.768,1.768h-2.99L48.354,23.455z"/>
	<path fill="#FFFFFF" d="M69.18,16.018l-2.186,4.707v4.498H65.93V7.281h1.064V18.67l5.07-11.389h1.066l-3.328,7.488l3.641,10.453
		h-1.092L69.18,16.018z"/>
	<path fill="#FFFFFF" d="M83.062,24.338h2.158V8.166h-2.158V7.281h5.383v0.885h-2.158v16.172h2.158v0.885h-5.383V24.338z"/>
	<path fill="#FFFFFF" d="M99.234,7.281h1.326l4.707,15.574V7.281h1.039v17.941h-1.326l-4.705-15.602v15.602h-1.041V7.281z"/>
	<path fill="#FFFFFF" d="M117.746,23.455V9.049l1.77-1.768h3.197l1.768,1.768v2.574h-1.064V9.414l-1.197-1.197h-2.209l-1.197,1.197
		V23.09l1.197,1.197h2.236l1.195-1.197v-5.771h-2.471v-0.936h3.537v7.072l-1.77,1.768h-3.223L117.746,23.455z"/>
	<path fill="#FFFFFF" d="M147.75,7.281h5.096l1.77,1.768v5.357l-1.457,1.455l1.457,1.457v6.137l-1.77,1.768h-5.096V7.281z
		 M152.197,15.395l1.352-1.354V9.414l-1.197-1.197h-3.535v7.178H152.197z M152.352,24.287l1.197-1.197v-5.408l-1.326-1.326h-3.406
		v7.932H152.352z"/>
	<path fill="#FFFFFF" d="M165.924,7.281h5.799v0.936h-4.732v7.516h4.42v0.936h-4.42v7.619h4.783v0.936h-5.85V7.281z"/>
	<path fill="#FFFFFF" d="M182.381,23.455V9.049l1.77-1.768h3.197l1.768,1.768v2.574h-1.064V9.414l-1.197-1.197h-2.209l-1.197,1.197
		V23.09l1.197,1.197h2.236l1.195-1.197v-5.771h-2.471v-0.936h3.537v7.072l-1.77,1.768h-3.223L182.381,23.455z"/>
	<path fill="#FFFFFF" d="M199.281,24.338h2.158V8.166h-2.158V7.281h5.383v0.885h-2.158v16.172h2.158v0.885h-5.383V24.338z"/>
	<path fill="#FFFFFF" d="M215.455,7.281h1.326l4.705,15.574V7.281h1.041v17.941h-1.326l-4.707-15.602v15.602h-1.039V7.281z"/>
	<path fill="#FFFFFF" d="M233.705,23.455v-2.549h1.066v2.184l1.197,1.197h2.08l1.195-1.197v-5.721l-0.832-0.832h-3.172l-1.535-1.533
		V9.049l1.77-1.768h3.016l1.768,1.768v2.549h-1.066V9.414l-1.195-1.197h-2.027l-1.197,1.197v5.227l0.832,0.832h3.172l1.535,1.533
		v6.449l-1.77,1.768h-3.066L233.705,23.455z"/>
	<path fill="#FFFFFF" d="M263.684,7.281h1.326l4.705,15.574V7.281h1.041v17.941h-1.326l-4.707-15.602v15.602h-1.039V7.281z"/>
	<path fill="#FFFFFF" d="M282.195,23.455V9.049l1.768-1.768h3.432l1.77,1.768v14.406l-1.77,1.768h-3.432L282.195,23.455z
		 M286.902,24.287l1.195-1.197V9.414l-1.195-1.197h-2.445l-1.195,1.197V23.09l1.195,1.197H286.902z"/>
	<path fill="#FFFFFF" d="M299.303,7.281h1.092l2.627,16.928l2.6-16.928h1.039l-2.912,17.941h-1.533L299.303,7.281z"/>
	<path fill="#FFFFFF" d="M317.061,7.281h5.799v0.936h-4.732v7.516h4.42v0.936h-4.42v7.619h4.783v0.936h-5.85V7.281z"/>
	<path fill="#FFFFFF" d="M333.908,7.281h1.611l3.537,16.328l3.459-16.328h1.664v17.941h-1.066V8.711l-3.51,16.512h-1.172
		l-3.535-16.512v16.512h-0.988V7.281z"/>
	<path fill="#FFFFFF" d="M355.879,7.281h5.096l1.768,1.768v5.357l-1.455,1.455l1.455,1.457v6.137l-1.768,1.768h-5.096V7.281z
		 M360.324,15.395l1.352-1.354V9.414l-1.195-1.197h-3.537v7.178H360.324z M360.48,24.287l1.195-1.197v-5.408l-1.326-1.326h-3.406
		v7.932H360.48z"/>
	<path fill="#FFFFFF" d="M374.053,7.281h5.797v0.936h-4.732v7.516h4.422v0.936h-4.422v7.619h4.785v0.936h-5.85V7.281z"/>
	<path fill="#FFFFFF" d="M390.9,7.281h4.992l1.768,1.768v6.189l-1.664,1.664l1.715,8.32h-1.092l-1.664-8.242h-2.99v8.242H390.9
		V7.281z M395.371,16.096l1.223-1.223V9.414l-1.195-1.197h-3.434v7.879H395.371z"/>
	<path fill="#FFFFFF" d="M420.564,17.553l1.535-1.535h2.99l0.832-0.832V9.414l-1.197-1.197h-1.896l-1.197,1.197v2.184h-1.066V9.049
		l1.77-1.768h2.885l1.77,1.768v6.502l-1.535,1.533h-2.99l-0.832,0.832v6.371h5.252v0.936h-6.318V17.553z"/>
	<path fill="#FFFFFF" d="M437.646,23.455V9.049l1.77-1.768h3.432l1.768,1.768v14.406l-1.768,1.768h-3.432L437.646,23.455z
		 M442.354,24.287l1.195-1.197V9.414l-1.195-1.197h-2.443l-1.197,1.197V23.09l1.197,1.197H442.354z"/>
	<path fill="#FFFFFF" d="M455.016,24.338h2.574V8.166h-2.574V7.281h3.639v17.057h2.289v0.885h-5.928V24.338z"/>
	<path fill="#FFFFFF" d="M475.736,19.893h-5.693v-0.781l2.105-11.83h1.066l-2.002,11.674h4.523V7.281h1.066v11.674h1.248v0.938
		h-1.248v5.33h-1.066V19.893z"/>
</g>
</svg>
