<?xml version="1.0" encoding="utf-8"?>
<!-- Generator: Adobe Illustrator 17.1.0, SVG Export Plug-In . SVG Version: 6.00 Build 0)  -->
<!DOCTYPE svg PUBLIC "-//W3C//DTD SVG 1.1//EN" "http://www.w3.org/Graphics/SVG/1.1/DTD/svg11.dtd">
<svg version="1.1" id="Layer_1" xmlns="http://www.w3.org/2000/svg" xmlns:xlink="http://www.w3.org/1999/xlink" x="0px" y="0px"
	 viewBox="0 0 24.135 27.375" enable-background="new 0 0 24.135 27.375" xml:space="preserve">
<path fill="#D0D8DC" d="M0,0l2.195,24.639l9.856,2.736l9.883-2.742L24.135,0H0z M19.555,5.848l-0.139,1.531l-0.061,0.68h-0.01
	h-7.277h-0.012H7.793l0.275,3.096h3.988h0.012h6.197h0.814l-0.074,0.811l-0.711,7.955l-0.045,0.51l-6.182,1.715l-0.016,0.002
	L5.865,20.43l-0.424-4.745h1.397h1.637l0.215,2.41l3.363,0.909h0.004l3.371-0.911l0.351-3.917h-3.711h-0.012h-6.75L4.562,5.848
	L4.49,5.037h7.566h0.012h7.559L19.555,5.848z"/>
</svg>
