<?xml version="1.0" encoding="utf-8"?>
<!-- Generator: Adobe Illustrator 16.0.0, SVG Export Plug-In . SVG Version: 6.00 Build 0)  -->
<!DOCTYPE svg PUBLIC "-//W3C//DTD SVG 1.1//EN" "http://www.w3.org/Graphics/SVG/1.1/DTD/svg11.dtd">
<svg version="1.1" id="Layer_1" xmlns="http://www.w3.org/2000/svg" xmlns:xlink="http://www.w3.org/1999/xlink" x="0px" y="0px"
	 width="667.333px" height="160.482px" viewBox="0 0 667.333 160.482" enable-background="new 0 0 667.333 160.482"
	 xml:space="preserve">
<g>
	<path fill="#3D82C4" d="M13.642,136.022c2.314-0.552,4.621-1.103,6.942-1.646c-0.009-25.129-0.009-50.249,0-75.378
		c-2.314,0.544-4.628,1.088-6.942,1.646c0-3.61,0-7.214,0-10.824c13.496-3.238,27.03-6.274,40.597-9.102
		c3.665,2.943,7.338,5.895,11.019,8.86c0,12.471,0,24.935,0,37.405c-3.681,4.441-7.354,8.891-11.019,13.355
		c-6.647,1.391-13.287,2.819-19.91,4.303c0,8.86,0,17.72,0,26.58c3.199-0.715,6.398-1.422,9.605-2.112c0,3.611,0,7.222,0,10.825
		c-10.118,2.189-20.213,4.489-30.292,6.91C13.642,143.236,13.642,139.631,13.642,136.022z M46.713,90.82
		c1.577-1.926,3.153-3.859,4.737-5.777c0-9.287,0-18.566,0-27.846c-1.576-1.266-3.16-2.523-4.737-3.782
		c-4.131,0.886-8.262,1.787-12.385,2.711c0,12.471,0,24.941,0,37.404C38.451,92.606,42.582,91.706,46.713,90.82z"/>
	<path fill="#FFFFFF" d="M54.238,40.718c3.665,2.943,7.338,5.895,11.019,8.86c0,12.471,0,24.935,0,37.405
		c-3.681,4.441-7.354,8.891-11.019,13.355c-6.647,1.391-13.287,2.819-19.91,4.303c0,8.86,0,17.72,0,26.58
		c3.199-0.715,6.398-1.422,9.605-2.112c0,3.611,0,7.222,0,10.825c-10.118,2.189-20.213,4.489-30.292,6.91c0-3.609,0-7.214,0-10.823
		c2.314-0.552,4.621-1.103,6.942-1.646c-0.009-25.129-0.009-50.249,0-75.378c-2.314,0.544-4.628,1.088-6.942,1.646
		c0-3.61,0-7.214,0-10.824C27.138,46.582,40.672,43.545,54.238,40.718 M34.328,93.53c4.123-0.924,8.254-1.824,12.385-2.71
		c1.577-1.926,3.153-3.859,4.737-5.777c0-9.287,0-18.566,0-27.846c-1.576-1.266-3.16-2.523-4.737-3.782
		c-4.131,0.886-8.262,1.787-12.385,2.711C34.328,68.596,34.328,81.067,34.328,93.53 M55.263,36.448l-1.84,0.381
		c-13.48,2.803-27.179,5.878-40.706,9.124l-3.051,0.729v3.138v10.824v5.048l4.907-1.181c0.676-0.163,1.358-0.326,2.034-0.489
		c-0.007,22.402-0.007,44.806,0,67.209l-2.889,0.683l-1.002,0.24l-3.051,0.73v3.138v10.823v5.048l4.907-1.18
		c9.808-2.36,19.972-4.676,30.198-6.896l3.138-0.676v-3.207V129.11v-4.923l-4.814,1.033c-1.6,0.35-3.199,0.698-4.791,1.048v-18.435
		c5.575-1.235,11.158-2.431,16.75-3.603l1.366-0.288l0.894-1.079c3.657-4.465,7.33-8.906,11.003-13.341l0.916-1.103v-1.437V49.579
		v-1.902l-1.483-1.196L56.73,37.621L55.263,36.448L55.263,36.448z M38.304,59.308c2.47-0.543,4.932-1.079,7.4-1.614l1.771,1.413
		v24.515l-2.718,3.308l-0.241,0.295c-2.073,0.443-4.139,0.894-6.212,1.352V59.308L38.304,59.308z"/>
	<path fill="#3D82C4" d="M74.179,122.642c0-24.942,0-49.876,0-74.811c3.674-4.411,7.354-8.806,11.035-13.185
		c8.254-1.522,16.517-2.967,24.786-4.334c3.696,3.091,7.385,6.197,11.081,9.318c0,24.935,0,49.868,0,74.811
		c-3.696,4.286-7.385,8.581-11.081,12.897c-8.27,1.368-16.532,2.812-24.786,4.333C81.532,128.645,77.853,125.632,74.179,122.642z
		 M102.437,117.082c1.592-1.872,3.176-3.734,4.768-5.591c0-21.471,0-42.941,0-64.404c-1.592-1.328-3.176-2.648-4.768-3.968
		c-3.223,0.551-6.445,1.109-9.667,1.685c-1.585,1.879-3.169,3.759-4.745,5.638c0,21.463,0,42.934,0,64.404
		c1.576,1.305,3.16,2.609,4.745,3.921C95.991,118.193,99.214,117.633,102.437,117.082z"/>
	<path fill="#FFFFFF" d="M110,30.313c3.696,3.091,7.385,6.197,11.081,9.318c0,24.935,0,49.868,0,74.811
		c-3.696,4.286-7.385,8.581-11.081,12.897c-8.27,1.368-16.532,2.812-24.786,4.333c-3.682-3.027-7.361-6.04-11.035-9.03
		c0-24.942,0-49.876,0-74.811c3.674-4.411,7.354-8.806,11.035-13.185C93.468,33.125,101.73,31.68,110,30.313 M92.77,118.766
		c3.222-0.573,6.444-1.133,9.667-1.685c1.592-1.872,3.176-3.734,4.768-5.591c0-21.471,0-42.941,0-64.404
		c-1.592-1.328-3.176-2.648-4.768-3.968c-3.223,0.551-6.445,1.109-9.667,1.685c-1.585,1.879-3.169,3.759-4.745,5.638
		c0,21.463,0,42.934,0,64.404C89.601,116.15,91.185,117.455,92.77,118.766 M111.149,26.089l-1.802,0.302
		c-8.293,1.367-16.578,2.819-24.856,4.342l-1.405,0.264l-0.917,1.095c-3.68,4.38-7.368,8.783-11.041,13.193l-0.925,1.11v1.437
		v74.811v1.886l1.468,1.196c3.665,2.99,7.338,5.996,11.02,9.016l1.428,1.182l1.818-0.343c8.23-1.515,16.47-2.95,24.716-4.316
		l1.429-0.234l0.939-1.103c3.688-4.317,7.377-8.604,11.073-12.89l0.963-1.119v-1.475V39.631v-1.848l-1.413-1.188
		c-3.696-3.129-7.393-6.235-11.097-9.334L111.149,26.089L111.149,26.089z M94.881,48.468c2.144-0.38,4.279-0.753,6.423-1.118
		l1.926,1.6v61.073l-2.882,3.386c-2.158,0.365-4.31,0.738-6.461,1.126l-1.173-0.971L92,112.974V51.893L94.881,48.468L94.881,48.468z
		"/>
	<path fill="#3D82C4" d="M131.595,113.122c2.346-0.35,4.683-0.699,7.028-1.032c0-25.129,0-50.249,0-75.377
		c-2.338,0.333-4.683,0.683-7.028,1.032c0-3.611,0-7.222,0-10.825c10.118-1.514,20.244-2.904,30.378-4.186c0,3.611,0,7.223,0,10.825
		c-3.145,0.396-6.298,0.808-9.435,1.227c0,25.129,0,50.249,0,75.378c4.969-0.66,9.947-1.297,14.925-1.91c0-7.075,0-14.157,0-21.238
		c3.797-0.458,7.602-0.909,11.406-1.344c0,10.693,0,21.378,0,32.062c-15.786,1.794-31.542,3.867-47.274,6.212
		C131.595,120.335,131.595,116.724,131.595,113.122z"/>
	<path fill="#FFFFFF" d="M161.973,22.734c0,3.611,0,7.223,0,10.825c-3.145,0.396-6.298,0.808-9.435,1.227
		c0,25.129,0,50.249,0,75.378c4.969-0.66,9.947-1.297,14.925-1.91c0-7.075,0-14.157,0-21.238c3.797-0.458,7.602-0.909,11.406-1.344
		c0,10.693,0,21.378,0,32.062c-15.786,1.794-31.542,3.867-47.274,6.212c0-3.61,0-7.222,0-10.824c2.346-0.35,4.683-0.699,7.028-1.032
		c0-25.129,0-50.249,0-75.377c-2.338,0.333-4.683,0.683-7.028,1.032c0-3.611,0-7.222,0-10.825
		C141.713,25.406,151.839,24.015,161.973,22.734 M165.948,18.222l-4.473,0.567c-10.335,1.305-20.586,2.718-30.471,4.201
		l-3.385,0.505v3.424v10.825v4.612l4.557-0.684c0.823-0.116,1.646-0.24,2.47-0.364v67.34c-1.071,0.155-2.135,0.318-3.206,0.474
		l-0.428,0.07l-3.393,0.504v3.425v10.824v4.613l4.557-0.684c15.702-2.337,31.559-4.419,47.144-6.188l3.525-0.404v-3.549V85.671
		v-4.457l-4.426,0.505c-3.812,0.435-7.626,0.893-11.431,1.352l-3.503,0.419v3.525v17.729c-2.321,0.286-4.65,0.582-6.973,0.885
		V38.273c1.988-0.264,3.976-0.521,5.956-0.77l3.479-0.434v-3.511V22.734V18.222L165.948,18.222z"/>
	<path fill="#3D82C4" d="M196.489,105.023c3.199-0.319,6.398-0.63,9.598-0.933c0-7.167,0-14.343,0-21.517
		c-5.746-17.418-11.478-34.796-17.215-52.136c-1.593,0.163-3.192,0.342-4.791,0.512c0-3.603,0-7.214,0-10.824
		c8.789-0.963,17.579-1.841,26.386-2.64c0,3.61,0,7.221,0,10.824c-2.547,0.232-5.087,0.474-7.625,0.714
		c3.618,12.448,7.244,24.911,10.863,37.39c3.719-13.123,7.438-26.23,11.166-39.322c-2.5,0.201-4.993,0.403-7.493,0.612
		c0-3.603,0-7.214,0-10.824c8.239-0.699,16.485-1.319,24.731-1.879c-0.007,3.61-0.007,7.222,0,10.824
		c-1.606,0.109-3.207,0.218-4.813,0.334c-5.739,18.357-11.485,36.753-17.231,55.188c0,7.167,0,14.343,0,21.51
		c3.199-0.264,6.406-0.521,9.612-0.761c0,3.604,0,7.214,0,10.824c-11.072,0.839-22.13,1.817-33.188,2.928
		C196.489,112.237,196.489,108.633,196.489,105.023z"/>
	<path fill="#FFFFFF" d="M242.109,15c-0.007,3.61-0.007,7.222,0,10.824c-1.606,0.109-3.207,0.218-4.813,0.334
		c-5.739,18.357-11.485,36.753-17.231,55.188c0,7.167,0,14.343,0,21.51c3.199-0.264,6.406-0.521,9.612-0.761
		c0,3.604,0,7.214,0,10.824c-11.072,0.839-22.13,1.817-33.188,2.928c0-3.61,0-7.214,0-10.824c3.199-0.319,6.398-0.63,9.598-0.933
		c0-7.167,0-14.343,0-21.517c-5.746-17.418-11.478-34.796-17.215-52.136c-1.593,0.163-3.192,0.342-4.791,0.512
		c0-3.603,0-7.214,0-10.824c8.789-0.963,17.579-1.841,26.386-2.64c0,3.61,0,7.221,0,10.824c-2.547,0.232-5.087,0.474-7.625,0.714
		c3.618,12.448,7.244,24.911,10.863,37.39c3.719-13.123,7.438-26.23,11.166-39.322c-2.5,0.201-4.993,0.403-7.493,0.612
		c0-3.603,0-7.214,0-10.824C225.617,16.18,233.863,15.56,242.109,15 M246.094,10.745l-4.256,0.288
		c-8.262,0.559-16.532,1.188-24.794,1.886l-2.602,0.219v-0.009l-4.333,0.396c-8.837,0.8-17.65,1.685-26.464,2.648l-3.541,0.388
		v3.564V30.95v4.427l4.396-0.474l1.607-0.171c4.744,14.357,9.496,28.755,14.249,43.167l1.755,5.311v17.271
		c-2.004,0.187-4.008,0.388-6.019,0.59l-3.579,0.35v3.604v10.824v4.396l4.371-0.443c11.097-1.11,22.232-2.097,33.096-2.919
		l3.673-0.271v-3.689v-10.824v-4.286l-4.271,0.318c-1.786,0.14-3.564,0.271-5.343,0.419V81.952
		c5.413-17.371,10.833-34.711,16.237-52.011l2.104-0.147l3.712-0.257l-0.008-3.72c-0.009-3.595-0.009-7.206,0-10.809L246.094,10.745
		L246.094,10.745z M214.248,31.959l3.464-0.295l1.763-0.14c-1.941,6.817-3.875,13.651-5.816,20.477l-4.753-16.361l-0.9-3.106
		l2.827-0.264L214.248,31.959L214.248,31.959z"/>
	<path fill="#3D82C4" d="M262.183,100.006c3.207-0.163,6.414-0.318,9.614-0.466c0-25.129,0-50.249,0-75.377
		c-2.967,0.132-5.94,0.279-8.915,0.435c0,6.182,0,12.37,0,18.559c-3.673,0.188-7.347,0.389-11.026,0.614c0-9.8,0-19.592,0-29.384
		c18.007-1.08,36.038-1.802,54.061-2.167c0,9.8,0,19.592,0,29.384c-3.727,0.078-7.454,0.171-11.182,0.271c0-6.181,0-12.37,0-18.559
		c-2.974,0.086-5.948,0.179-8.922,0.287c0,25.12,0,50.249,0,75.377c3.207-0.116,6.422-0.217,9.628-0.303c0,3.604,0,7.214,0,10.825
		c-11.088,0.311-22.176,0.753-33.258,1.327C262.183,107.228,262.183,103.617,262.183,100.006z"/>
	<path fill="#FFFFFF" d="M305.916,12.22c0,9.8,0,19.592,0,29.384c-3.727,0.078-7.454,0.171-11.182,0.271c0-6.181,0-12.37,0-18.559
		c-2.974,0.086-5.948,0.179-8.922,0.287c0,25.12,0,50.249,0,75.377c3.207-0.116,6.422-0.217,9.628-0.303c0,3.604,0,7.214,0,10.825
		c-11.088,0.311-22.176,0.753-33.258,1.327c0-3.603,0-7.214,0-10.824c3.207-0.163,6.414-0.318,9.614-0.466
		c0-25.129,0-50.249,0-75.377c-2.967,0.132-5.94,0.279-8.915,0.435c0,6.182,0,12.37,0,18.559c-3.673,0.188-7.347,0.389-11.026,0.614
		c0-9.8,0-19.592,0-29.384C269.862,13.307,287.894,12.585,305.916,12.22 M309.893,8.167l-4.053,0.077
		c-18.009,0.365-36.249,1.095-54.226,2.175l-3.735,0.225v3.743v29.384v4.224l4.217-0.256c3.673-0.226,7.331-0.427,10.988-0.614
		l3.773-0.186v-3.782V28.379c0.318-0.022,0.645-0.038,0.963-0.054v67.417c-1.941,0.094-3.891,0.194-5.839,0.295l-3.774,0.187v3.782
		v10.824v4.186l4.178-0.217c11.003-0.567,22.162-1.01,33.165-1.32l3.867-0.108v-3.867V98.678v-4.085l-4.084,0.109
		c-1.849,0.047-3.697,0.109-5.545,0.163V27.448c0.326-0.015,0.645-0.023,0.971-0.03v14.458v4.085l4.085-0.109
		c3.72-0.101,7.439-0.194,11.158-0.271l3.891-0.077v-3.898V12.22V8.167L309.893,8.167z"/>
	<path fill="#3D82C4" d="M318.364,98.228c2.36-0.023,4.722-0.047,7.09-0.062c0-25.12,0-50.249,0-75.376
		c-2.361,0.015-4.729,0.038-7.09,0.062c0-3.603,0-7.214,0-10.825c16.005-0.179,32.008-0.077,48.006,0.304c0,8.16,0,16.314,0,24.468
		c-3.877-0.085-7.742-0.163-11.609-0.226c0-4.55,0-9.093,0-13.644c-5.104-0.077-10.195-0.132-15.299-0.147
		c0,10.312,0,20.625,0,30.938c7.082,0.03,14.164,0.116,21.246,0.248c0,4.085,0,8.161,0,12.238
		c-7.082-0.141-14.164-0.218-21.246-0.248c0,10.73,0,21.462,0,32.201c5.195,0.023,10.391,0.07,15.586,0.155
		c0-4.503,0-9.008,0-13.504c3.867,0.056,7.74,0.132,11.609,0.226c0,8.115,0,16.222,0,24.328c-16.092-0.38-32.196-0.488-48.293-0.311
		C318.364,105.45,318.364,101.838,318.364,98.228z"/>
	<path fill="#FFFFFF" d="M333.7,11.941c10.889,0,21.781,0.132,32.67,0.389c0,8.16,0,16.314,0,24.468
		c-3.877-0.085-7.742-0.163-11.609-0.226c0-4.55,0-9.093,0-13.644c-5.104-0.077-10.195-0.132-15.299-0.147
		c0,10.312,0,20.625,0,30.938c7.082,0.03,14.164,0.116,21.246,0.248c0,4.085,0,8.161,0,12.238
		c-7.082-0.141-14.164-0.218-21.246-0.248c0,10.73,0,21.462,0,32.201c5.195,0.023,10.391,0.07,15.586,0.155
		c0-4.503,0-9.008,0-13.504c3.867,0.056,7.74,0.132,11.609,0.226c0,8.115,0,16.222,0,24.328c-11.043-0.264-22.1-0.396-33.151-0.396
		c-5.047,0-10.094,0.031-15.142,0.085c0-3.603,0-7.214,0-10.824c2.36-0.023,4.722-0.047,7.09-0.062c0-25.12,0-50.249,0-75.376
		c-2.361,0.015-4.729,0.038-7.09,0.062c0-3.603,0-7.214,0-10.825C323.474,11.972,328.591,11.941,333.7,11.941 M333.7,7.965
		c-5.125,0-10.25,0.03-15.383,0.085l-3.929,0.047v3.929v10.825v4.015l4.015-0.039l3.074-0.023v67.418l-3.151,0.031l-3.938,0.038
		v3.938v10.824v4.023l4.022-0.047c5.031-0.055,10.063-0.086,15.095-0.086c10.903,0,22.022,0.133,33.058,0.396l4.068,0.093v-4.069
		V85.035v-3.883l-3.881-0.093c-3.877-0.093-7.766-0.171-11.648-0.226l-4.031-0.054v4.029v9.475c-2.547-0.04-5.086-0.062-7.633-0.078
		V69.955c5.73,0.039,11.461,0.109,17.193,0.226l4.053,0.078v-4.054V53.966v-3.898l-3.898-0.078
		c-5.785-0.107-11.57-0.186-17.348-0.225V26.772c2.447,0.023,4.898,0.047,7.346,0.078v9.722v3.914l3.914,0.062
		c3.859,0.062,7.719,0.139,11.586,0.225l4.061,0.086v-4.062V12.33V8.447l-3.883-0.094C355.599,8.097,344.571,7.965,333.7,7.965
		L333.7,7.965z"/>
	<path fill="#3D82C4" d="M378.257,98.585c0-24.942,0-49.876,0-74.811c3.729-3.587,7.455-7.144,11.184-10.7
		c7.732,0.318,15.467,0.698,23.201,1.142c3.719,3.921,7.447,7.851,11.168,11.795c0,6.188,0,12.378,0,18.567
		c-4.66-0.304-9.334-0.591-14.002-0.847c0-4.457,0-8.915,0-13.364c-1.6-1.686-3.207-3.362-4.807-5.039
		c-2.639-0.132-5.279-0.265-7.92-0.389c-1.607,1.522-3.207,3.036-4.807,4.565c0,21.564,0,43.128,0,64.692
		c1.6,1.607,3.199,3.23,4.807,4.846c2.641,0.124,5.281,0.256,7.92,0.388c1.6-1.459,3.207-2.919,4.807-4.371
		c0-4.644,0-9.287,0-13.924c4.668,0.257,9.342,0.536,14.002,0.847c0,6.282,0,12.564,0,18.839
		c-3.721,3.463-7.449,6.935-11.168,10.421c-7.734-0.443-15.469-0.823-23.201-1.142C385.712,106.25,381.985,102.406,378.257,98.585z"
		/>
	<path fill="#FFFFFF" d="M389.44,13.075c7.732,0.318,15.467,0.698,23.201,1.142c3.719,3.921,7.447,7.851,11.168,11.795
		c0,6.188,0,12.378,0,18.567c-4.66-0.304-9.334-0.591-14.002-0.847c0-4.457,0-8.915,0-13.364c-1.6-1.686-3.207-3.362-4.807-5.039
		c-2.639-0.132-5.279-0.265-7.92-0.389c-1.607,1.522-3.207,3.036-4.807,4.565c0,21.564,0,43.128,0,64.692
		c1.6,1.607,3.199,3.23,4.807,4.846c2.641,0.124,5.281,0.256,7.92,0.388c1.6-1.459,3.207-2.919,4.807-4.371
		c0-4.644,0-9.287,0-13.924c4.668,0.257,9.342,0.536,14.002,0.847c0,6.282,0,12.564,0,18.839
		c-3.721,3.463-7.449,6.935-11.168,10.421c-7.734-0.443-15.469-0.823-23.201-1.142c-3.729-3.852-7.455-7.695-11.184-11.516
		c0-24.942,0-49.876,0-74.811C381.985,20.188,385.712,16.631,389.44,13.075 M387.917,9.037l-1.227,1.164
		c-3.727,3.557-7.453,7.122-11.189,10.709l-1.219,1.173v1.692v74.811v1.615l1.135,1.165c3.719,3.812,7.438,7.656,11.166,11.5
		l1.102,1.141l1.592,0.07c7.713,0.318,15.43,0.691,23.141,1.133l1.701,0.102l1.242-1.164c3.719-3.486,7.438-6.958,11.158-10.414
		l1.266-1.18v-1.731V81.983v-3.72l-3.711-0.248c-4.676-0.311-9.365-0.59-14.047-0.847l-4.193-0.233v4.201v12.168l-2.285,2.074
		l-4.729-0.233l-1.334-1.335l-1.234-1.251V31.214l2.336-2.222l4.635,0.226l0.521,0.552l2.09,2.189v11.772v3.766l3.758,0.202
		c4.65,0.257,9.311,0.543,13.963,0.847l4.23,0.271v-4.239V26.011v-1.576l-1.086-1.149c-3.643-3.867-7.291-7.719-10.941-11.562
		l-1.08-1.142l-1.811-0.334c-7.758-0.442-15.506-0.823-23.264-1.149L387.917,9.037L387.917,9.037z"/>
	<path fill="#3D82C4" d="M432.429,101.707c2.359,0.171,4.713,0.342,7.074,0.528c0-25.128,0-50.249,0-75.377
		c-2.361-0.179-4.715-0.357-7.074-0.527c0-3.612,0-7.214,0-10.826c8.906,0.646,17.805,1.375,26.695,2.19c0,3.611,0,7.214,0,10.825
		c-1.879-0.172-3.758-0.342-5.637-0.505c0,10.639,0,21.276,0,31.923c5.785,0.505,11.57,1.048,17.355,1.63
		c0-10.639,0-21.284,0-31.922c-1.879-0.187-3.76-0.373-5.646-0.552c0-3.611,0-7.222,0-10.825c8.846,0.848,17.684,1.787,26.512,2.812
		c0,3.61,0,7.214,0,10.824c-2.307-0.264-4.605-0.527-6.904-0.784c0,25.128,0,50.257,0,75.377c2.299,0.257,4.598,0.521,6.904,0.785
		c0,3.61,0,7.221,0,10.824c-8.828-1.025-17.666-1.965-26.512-2.812c0-3.61,0-7.221,0-10.824c1.879,0.179,3.76,0.364,5.646,0.552
		c0-10.079,0-20.158,0-30.238c-5.785-0.583-11.57-1.126-17.355-1.63c0,10.079,0,20.158,0,30.237
		c1.879,0.163,3.758,0.334,5.637,0.504c0,3.611,0,7.214,0,10.825c-8.891-0.815-17.789-1.545-26.695-2.189
		C432.429,108.92,432.429,105.318,432.429,101.707z"/>
	<path fill="#FFFFFF" d="M432.429,15.504c8.906,0.646,17.805,1.375,26.695,2.19c0,3.611,0,7.214,0,10.825
		c-1.879-0.172-3.758-0.342-5.637-0.505c0,10.639,0,21.276,0,31.923c5.785,0.505,11.57,1.048,17.355,1.63
		c0-10.639,0-21.284,0-31.922c-1.879-0.187-3.76-0.373-5.646-0.552c0-3.611,0-7.222,0-10.825c8.846,0.848,17.684,1.787,26.512,2.812
		c0,3.61,0,7.214,0,10.824c-2.307-0.264-4.605-0.527-6.904-0.784c0,25.128,0,50.257,0,75.377c2.299,0.257,4.598,0.521,6.904,0.785
		c0,3.61,0,7.221,0,10.824c-8.828-1.025-17.666-1.965-26.512-2.812c0-3.61,0-7.221,0-10.824c1.879,0.179,3.76,0.364,5.646,0.552
		c0-10.079,0-20.158,0-30.238c-5.785-0.583-11.57-1.126-17.355-1.63c0,10.079,0,20.158,0,30.237
		c1.879,0.163,3.758,0.334,5.637,0.504c0,3.611,0,7.214,0,10.825c-8.891-0.815-17.789-1.545-26.695-2.189c0-3.611,0-7.214,0-10.825
		c2.359,0.171,4.713,0.342,7.074,0.528c0-25.128,0-50.249,0-75.377c-2.361-0.179-4.715-0.357-7.074-0.527
		C432.429,22.718,432.429,19.117,432.429,15.504 M428.452,11.234v4.271v10.826v3.695l3.688,0.272l3.387,0.248v67.402
		c-0.939-0.07-1.871-0.14-2.811-0.21l-4.264-0.303v4.271v10.825v3.696l3.688,0.271c8.885,0.637,17.76,1.366,26.619,2.183
		l2.463,0.226l0,0l3.594,0.348c8.66,0.824,17.551,1.771,26.434,2.804l4.434,0.513v-4.465v-10.824v-3.55l-3.523-0.403l-0.717-0.077
		l-2.662-0.303V35.571l1.715,0.193l0.762,0.094l4.426,0.505v-4.458V21.081V17.54l-3.516-0.411
		c-8.947-1.033-17.893-1.988-26.59-2.819l-2.477-0.232v-0.008l-3.609-0.334c-8.924-0.816-17.846-1.546-26.775-2.198L428.452,11.234
		L428.452,11.234z M457.464,56.295V32.364l1.303,0.116l2.455,0.226v0.007l3.602,0.342l2.045,0.194v23.933
		C463.729,56.871,460.601,56.583,457.464,56.295L457.464,56.295z M457.464,99.757V77.495c3.137,0.288,6.266,0.583,9.404,0.894
		v22.247l-1.297-0.124l-2.471-0.233v-0.015l-3.619-0.327L457.464,99.757L457.464,99.757z"/>
	<path fill="#3D82C4" d="M500.421,108.323c2.305,0.279,4.604,0.574,6.902,0.861c0-25.12,0-50.248,0-75.376
		c-2.299-0.295-4.598-0.575-6.902-0.862c0-3.611,0-7.214,0-10.825c6.01,0.738,12.012,1.515,18.016,2.33
		c7.688,21.999,15.367,44.061,23.045,66.183c0-17.34,0-34.68,0-52.026c-2.344-0.358-4.682-0.707-7.02-1.057
		c0-3.604,0-7.214,0-10.824c8.66,1.281,17.309,2.647,25.953,4.101c0,3.602,0,7.214,0,10.824c-2.238-0.373-4.48-0.745-6.725-1.111
		c0,28.731,0,57.463,0,86.202c-3.744-0.605-7.486-1.203-11.23-1.778c-7.672-22.465-15.352-44.859-23.039-67.2
		c0,17.674,0,35.348,0,53.021c2.346,0.325,4.684,0.652,7.029,0.985c0,3.603,0,7.214,0,10.825
		c-8.666-1.235-17.342-2.384-26.029-3.448C500.421,115.544,500.421,111.933,500.421,108.323z"/>
	<path fill="#FFFFFF" d="M500.421,22.121c6.01,0.738,12.012,1.515,18.016,2.33c7.688,21.999,15.367,44.061,23.045,66.183
		c0-17.34,0-34.68,0-52.026c-2.344-0.358-4.682-0.707-7.02-1.057c0-3.604,0-7.214,0-10.824c8.66,1.281,17.309,2.647,25.953,4.101
		c0,3.602,0,7.214,0,10.824c-2.238-0.373-4.48-0.745-6.725-1.111c0,28.731,0,57.463,0,86.202c-3.744-0.605-7.486-1.203-11.23-1.778
		c-7.672-22.465-15.352-44.859-23.039-67.2c0,17.674,0,35.348,0,53.021c2.346,0.325,4.684,0.652,7.029,0.985
		c0,3.603,0,7.214,0,10.825c-8.666-1.235-17.342-2.384-26.029-3.448c0-3.603,0-7.214,0-10.824c2.305,0.279,4.604,0.574,6.902,0.861
		c0-25.12,0-50.248,0-75.376c-2.299-0.295-4.598-0.575-6.902-0.862C500.421,29.334,500.421,25.732,500.421,22.121 M496.444,17.625
		v4.496v10.825v3.51l3.486,0.435l2.119,0.265l1.297,0.163v67.363l-2.445-0.303l-4.457-0.544v4.488v10.824v3.519l3.494,0.427
		c8.666,1.063,17.309,2.205,25.951,3.439l4.535,0.645v-4.581V111.77v-3.447l-3.416-0.489l-3.611-0.504V81.563
		c5.102,14.864,10.203,29.757,15.305,44.681l0.777,2.284l2.377,0.364c3.734,0.575,7.469,1.174,11.197,1.771l4.613,0.752v-4.674
		V45.223l2.094,0.349l4.629,0.77v-4.69V30.827v-3.363l-3.314-0.559c-8.674-1.453-17.348-2.827-26.031-4.108l-4.557-0.676v4.605
		V37.55v3.425l3.385,0.505l3.635,0.551v25.051c-5.102-14.676-10.211-29.321-15.32-43.943l-0.801-2.299l-2.414-0.326
		c-6.02-0.822-12.045-1.6-18.07-2.337L496.444,17.625L496.444,17.625z"/>
	<path fill="#3D82C4" d="M566.284,118.021c2.572,0.443,5.141,0.894,7.703,1.352c0-25.12,0-50.249,0-75.377
		c-2.562-0.458-5.131-0.908-7.703-1.352c0-3.603,0-7.214,0-10.824c9.809,1.693,19.6,3.486,29.369,5.389c0,3.611,0,7.223,0,10.825
		c-2.602-0.505-5.211-1.01-7.82-1.499c0,25.128,0,50.249,0,75.378c2.609,0.496,5.219,0.993,7.82,1.498c0,3.61,0,7.214,0,10.824
		c-9.77-1.901-19.561-3.696-29.369-5.389C566.284,125.244,566.284,121.632,566.284,118.021z"/>
	<path fill="#FFFFFF" d="M566.284,31.82c9.809,1.693,19.6,3.486,29.369,5.389c0,3.611,0,7.223,0,10.825
		c-2.602-0.505-5.211-1.01-7.82-1.499c0,25.128,0,50.249,0,75.378c2.609,0.496,5.219,0.993,7.82,1.498c0,3.61,0,7.214,0,10.824
		c-9.77-1.901-19.561-3.696-29.369-5.389c0-3.603,0-7.214,0-10.825c2.572,0.443,5.141,0.894,7.703,1.352c0-25.12,0-50.249,0-75.377
		c-2.562-0.458-5.131-0.908-7.703-1.352C566.284,39.042,566.284,35.43,566.284,31.82 M562.31,27.098v4.722v10.824v3.347l3.299,0.575
		c1.469,0.248,2.936,0.505,4.404,0.761v67.31c-1.018-0.179-2.035-0.357-3.053-0.536l-4.65-0.8v4.721v10.825v3.347l3.299,0.574
		c9.869,1.701,19.725,3.511,29.285,5.374l4.736,0.917v-4.823v-10.824v-3.276l-3.217-0.63l-4.604-0.877V51.341
		c1.033,0.194,2.059,0.396,3.084,0.599l4.736,0.916v-4.822V37.208v-3.276l-3.217-0.621c-9.613-1.88-19.527-3.696-29.453-5.405
		L562.31,27.098L562.31,27.098z"/>
	<path fill="#3D82C4" d="M608.917,125.771c0-24.934,0-49.868,0-74.811c3.672-2.95,7.338-5.878,11.002-8.798
		c7.609,1.623,15.211,3.316,22.807,5.071c3.658,4.55,7.314,9.108,10.965,13.689c0,6.189,0,12.379,0,18.567
		c-4.58-1.095-9.156-2.175-13.744-3.223c0-4.457,0-8.915,0-13.364c-1.568-1.949-3.145-3.906-4.723-5.854
		c-2.594-0.583-5.186-1.157-7.789-1.731c-1.574,1.25-3.145,2.5-4.721,3.75c0,21.564,0,43.128,0,64.692
		c1.576,1.887,3.146,3.773,4.721,5.661c2.594,0.573,5.195,1.148,7.789,1.73c1.578-1.188,3.154-2.375,4.723-3.557
		c0-4.643,0-9.287,0-13.922c4.588,1.048,9.17,2.128,13.744,3.223c0,6.282,0,12.557,0,18.838c-3.65,2.826-7.307,5.669-10.965,8.525
		c-7.596-1.754-15.197-3.446-22.807-5.069C616.255,134.702,612.589,130.229,608.917,125.771z"/>
	<path fill="#FFFFFF" d="M619.919,42.163c7.609,1.623,15.211,3.316,22.807,5.071c3.658,4.55,7.314,9.108,10.965,13.689
		c0,6.189,0,12.379,0,18.567c-4.58-1.095-9.156-2.175-13.744-3.223c0-4.457,0-8.915,0-13.364c-1.568-1.949-3.145-3.906-4.723-5.854
		c-2.594-0.583-5.186-1.157-7.789-1.731c-1.574,1.25-3.145,2.5-4.721,3.75c0,21.564,0,43.128,0,64.692
		c1.576,1.887,3.146,3.773,4.721,5.661c2.594,0.573,5.195,1.148,7.789,1.73c1.578-1.188,3.154-2.375,4.723-3.557
		c0-4.643,0-9.287,0-13.922c4.588,1.048,9.17,2.128,13.744,3.223c0,6.282,0,12.557,0,18.838c-3.65,2.826-7.307,5.669-10.965,8.525
		c-7.596-1.754-15.197-3.446-22.807-5.069c-3.664-4.488-7.33-8.961-11.002-13.419c0-24.934,0-49.868,0-74.811
		C612.589,48.01,616.255,45.083,619.919,42.163 M618.909,37.884l-1.469,1.173c-3.672,2.92-7.336,5.847-11.018,8.806l-1.482,1.196
		v1.901v74.811v1.429l0.908,1.103c3.664,4.45,7.33,8.915,10.988,13.402l0.885,1.08l1.367,0.295
		c7.586,1.615,15.172,3.308,22.744,5.055l1.848,0.427l1.492-1.164c3.656-2.857,7.307-5.699,10.955-8.519l1.539-1.195v-1.949v-18.838
		v-3.138l-3.053-0.729c-4.59-1.096-9.178-2.183-13.783-3.23l-4.861-1.11v4.985v11.942l-1.668,1.258l-4.684-1.04l-1.49-1.785
		l-1.438-1.732v-61.33l0.879-0.69l0.854-0.685l4.582,1.018l2.965,3.682v11.958v3.168l3.092,0.707
		c4.572,1.049,9.139,2.12,13.705,3.214l4.9,1.173v-5.039V60.923v-1.39l-0.871-1.087c-3.65-4.589-7.314-9.147-10.973-13.706
		l-0.861-1.071l-1.344-0.311c-7.617-1.755-15.234-3.455-22.867-5.086L618.909,37.884L618.909,37.884z"/>
	<path fill="#FFFFFF" d="M366.811,170.224h-28.794l-38.14,65.898l-0.004-0.01l-10.601-18.311l27.532-47.578h-31.33l-27.537,47.578
		l27.538,47.566h28.791l38.15-65.879l10.596,18.312l-27.534,47.566h31.333l27.538-47.566L366.811,170.224z M375.445,205.072
		l3.229-5.582l9.336,16.121h-18.66L375.445,205.072z M365.547,176.796l9.324,16.121h-18.656L365.547,176.796z M361.742,174.609
		l-9.326,16.123l-1.061-1.826l-8.271-14.297H361.742z M339.279,176.794l7.344,12.689l1.988,3.434h-18.669L339.279,176.794z
		 M326.141,199.49l9.336,16.121h-18.658L326.141,199.49z M313.015,222.183l9.322,16.117h-18.651L313.015,222.183z M286.738,222.181
		l9.332,16.119h-18.662l4.665-8.059L286.738,222.181z M286.738,213.425l-4.665-8.061l-4.665-8.061h18.662L286.738,213.425z
		 M309.198,174.609l-9.325,16.123l-6.68-11.543l-2.651-4.58H309.198z M286.738,176.794l2.168,3.744l7.164,12.379h-18.663
		L286.738,176.794z M273.604,199.49l4.666,8.061l4.665,8.061h-18.66L273.604,199.49z M264.275,219.996h18.66l-4.665,8.059
		l-4.666,8.059L264.275,219.996z M286.738,258.798l-9.33-16.111h18.661l-9.211,15.908L286.738,258.798z M290.542,260.982
		l1.504-2.596l7.828-13.518l4.662,8.059l4.663,8.055H290.542z M313,258.798l-4.661-8.059l-4.663-8.053h18.653L313,258.798z
		 M326.183,236.117l-9.328-16.121h18.668L326.183,236.117z M339.279,213.425l-9.335-16.121h18.667L339.279,213.425z
		 M374.869,197.304l-5.408,9.35l-3.914,6.77l-9.332-16.119H374.869z M365.547,222.183l7.18,12.412l2.143,3.705h-18.652
		L365.547,222.183z M343.084,260.982l9.332-16.113l4.662,8.059l4.664,8.055H343.084z M365.547,258.798l-4.664-8.059l-4.666-8.053
		h18.652L365.547,258.798z M378.674,236.113l-1.336-2.307l-7.988-13.811h18.66L378.674,236.113z"/>
</g>
</svg>
