<?xml version="1.0" encoding="utf-8"?>
<!-- Generator: Adobe Illustrator 17.1.0, SVG Export Plug-In . SVG Version: 6.00 Build 0)  -->
<!DOCTYPE svg PUBLIC "-//W3C//DTD SVG 1.1//EN" "http://www.w3.org/Graphics/SVG/1.1/DTD/svg11.dtd">
<svg version="1.1" id="Layer_1" xmlns="http://www.w3.org/2000/svg" xmlns:xlink="http://www.w3.org/1999/xlink" x="0px" y="0px"
	 viewBox="0 0 75.396 14.638" enable-background="new 0 0 75.396 14.638" xml:space="preserve">
<g>
	<g>
		<g>
			<path fill="#7A7A7A" d="M30.932,7.557c0,1.213-0.271,2.184-0.811,2.921c-0.539,0.736-1.293,1.102-2.262,1.102
				c-0.498,0-0.932-0.075-1.305-0.227c-0.371-0.151-0.695-0.382-0.967-0.688v3.817H24.23V3.504h1.174l0.107,0.909
				c0.275-0.347,0.604-0.609,0.984-0.787c0.381-0.179,0.828-0.269,1.342-0.269c0.992,0,1.754,0.361,2.289,1.084
				c0.537,0.724,0.805,1.711,0.805,2.962V7.557L30.932,7.557z M29.574,7.403c0-0.851-0.178-1.545-0.533-2.086
				c-0.357-0.539-0.893-0.81-1.606-0.81c-0.445,0-0.818,0.097-1.119,0.289C26.018,4.99,25.773,5.259,25.588,5.6v3.791
				c0.189,0.347,0.435,0.613,0.732,0.802c0.299,0.188,0.676,0.281,1.129,0.281c0.703,0,1.234-0.271,1.592-0.812
				c0.355-0.543,0.533-1.244,0.533-2.104V7.403z"/>
			<path fill="#7A7A7A" d="M32.107,7.395c0-1.188,0.324-2.157,0.971-2.909c0.647-0.753,1.522-1.129,2.627-1.129
				c1.113,0,1.996,0.375,2.646,1.124c0.65,0.75,0.975,1.723,0.975,2.914v0.161c0,1.193-0.324,2.161-0.971,2.907
				c-0.648,0.744-1.525,1.116-2.635,1.116c-1.111,0-1.99-0.372-2.639-1.116c-0.65-0.746-0.977-1.715-0.977-2.907V7.395H32.107z
				 M33.471,7.557c0,0.851,0.191,1.55,0.574,2.098c0.385,0.546,0.943,0.819,1.676,0.819c0.725,0,1.279-0.273,1.668-0.819
				c0.389-0.548,0.582-1.247,0.582-2.098V7.395c0-0.84-0.195-1.537-0.586-2.093c-0.391-0.553-0.951-0.831-1.68-0.831
				c-0.723,0-1.275,0.276-1.658,0.831c-0.383,0.556-0.574,1.253-0.574,2.093v0.161H33.471z"/>
			<path fill="#7A7A7A" d="M42.096,11.435h-1.357V0h1.357V11.435z"/>
			<path fill="#7A7A7A" d="M46.451,8.773l0.131,0.506l1.869-5.775h1.518l-3.189,9.154c-0.199,0.538-0.48,1.001-0.842,1.394
				c-0.361,0.39-0.865,0.586-1.51,0.586c-0.094,0-0.199-0.011-0.314-0.033c-0.119-0.022-0.268-0.049-0.449-0.085l0.008-1.099
				c0.035,0.004,0.094,0.011,0.176,0.019c0.084,0.007,0.145,0.011,0.184,0.011c0.461,0,0.801-0.098,1.023-0.29
				c0.223-0.193,0.422-0.542,0.596-1.044l0.324-0.96l-2.764-7.653h1.51L46.451,8.773z"/>
			<path fill="#7A7A7A" d="M52.252,3.504l0.082,0.909c0.279-0.343,0.613-0.604,1.002-0.785c0.393-0.181,0.85-0.271,1.371-0.271
				c0.527,0,0.984,0.112,1.367,0.34c0.383,0.228,0.684,0.576,0.898,1.045c0.279-0.435,0.627-0.774,1.047-1.019
				c0.422-0.246,0.914-0.366,1.482-0.366c0.826,0,1.473,0.271,1.945,0.816c0.473,0.545,0.707,1.38,0.707,2.504v4.757h-1.355V6.663
				c0-0.792-0.145-1.35-0.434-1.672c-0.287-0.322-0.707-0.483-1.26-0.483c-0.537,0-0.963,0.177-1.279,0.531
				c-0.314,0.355-0.5,0.801-0.553,1.338v5.057h-1.365V6.648c0-0.752-0.145-1.297-0.436-1.636c-0.291-0.336-0.709-0.504-1.256-0.504
				c-0.475,0-0.859,0.098-1.152,0.297c-0.293,0.197-0.518,0.478-0.674,0.839v5.79h-1.355V3.503L52.252,3.504L52.252,3.504z"/>
			<path fill="#7A7A7A" d="M67.025,11.58c-1.113,0-1.998-0.351-2.654-1.054c-0.654-0.704-0.981-1.631-0.981-2.778V7.439
				c0-1.256,0.338-2.251,1.01-2.983c0.674-0.732,1.494-1.099,2.457-1.099c1.104,0,1.924,0.352,2.459,1.056
				c0.535,0.703,0.801,1.648,0.801,2.835v0.609h-5.371c0.016,0.768,0.232,1.395,0.652,1.884c0.422,0.489,0.988,0.733,1.701,0.733
				c0.459,0,0.854-0.09,1.186-0.271c0.334-0.18,0.633-0.446,0.904-0.797l0.826,0.644c-0.303,0.46-0.693,0.829-1.172,1.111
				C68.365,11.439,67.758,11.58,67.025,11.58z M66.857,4.472c-0.562,0-1.025,0.195-1.389,0.586c-0.365,0.391-0.592,0.953-0.68,1.686
				h3.975V6.641c-0.045-0.619-0.213-1.138-0.508-1.551C67.963,4.677,67.498,4.472,66.857,4.472z"/>
			<path fill="#7A7A7A" d="M75.396,4.721c-0.123-0.016-0.232-0.027-0.33-0.037c-0.1-0.011-0.211-0.015-0.338-0.015
				c-0.459,0-0.838,0.099-1.137,0.297c-0.297,0.197-0.521,0.478-0.674,0.838v5.63h-1.355V3.503h1.254l0.072,0.895
				c0.225-0.332,0.494-0.59,0.811-0.77c0.314-0.181,0.68-0.272,1.096-0.272c0.092,0,0.203,0.013,0.33,0.037
				c0.127,0.024,0.217,0.047,0.27,0.065v1.262H75.396z"/>
		</g>
	</g>
	<polygon fill="#4257A7" points="3.738,7.947 1.869,11.186 3.738,14.423 5.607,11.186 	"/>
	<polygon fill="#5368B1" points="14.955,1.472 13.084,4.71 14.955,7.947 16.824,4.71 	"/>
	<polygon fill="#8D99CD" points="16.824,4.71 11.217,14.423 14.955,14.423 18.693,7.947 	"/>
	<polygon fill="#F05D91" points="11.217,1.472 3.738,14.423 7.477,14.423 14.955,1.472 	"/>
	<polygon fill="#6B7EBE" points="3.738,1.472 0,7.947 1.869,11.186 7.477,1.472 	"/>
	<polygon fill="#FFFFFF" fill-opacity="0.2" points="11.217,1.472 13.084,4.71 14.955,1.472 	"/>
	<polygon fill="#FFFFFF" fill-opacity="0.1" points="9.346,4.71 11.217,1.472 13.084,4.71 	"/>
	<polygon fill="#FFFFFF" fill-opacity="0" points="9.346,4.71 11.217,7.947 13.084,4.71 	"/>
	<polygon fill="#010101" fill-opacity="0.1" points="7.477,7.947 9.346,4.71 11.217,7.947 	"/>
	<polygon fill="#010101" fill-opacity="0.2" points="7.477,7.947 9.346,11.186 11.217,7.947 	"/>
	<polygon fill="#010101" fill-opacity="0.3" points="5.607,11.186 7.477,7.947 9.346,11.186 	"/>
	<polygon fill="#010101" fill-opacity="0.4" points="5.607,11.186 7.477,14.423 9.346,11.186 	"/>
	<polygon fill="#010101" fill-opacity="0.5" points="3.738,14.423 5.607,11.186 7.477,14.423 	"/>
	<polygon fill="#FFFFFF" fill-opacity="0.2" points="3.738,1.472 5.607,4.71 7.477,1.472 	"/>
	<polygon fill="#FFFFFF" fill-opacity="0.1" points="1.869,4.71 3.738,1.472 5.607,4.71 	"/>
	<polygon fill="#FFFFFF" fill-opacity="0" points="1.869,4.71 3.738,7.947 5.607,4.71 	"/>
	<polygon fill="#010101" fill-opacity="0.1" points="0,7.947 1.869,4.71 3.738,7.947 	"/>
	<polygon fill="#010101" fill-opacity="0.2" points="0,7.947 1.869,11.186 3.738,7.947 	"/>
	<polygon fill="#FFFFFF" fill-opacity="0" points="5.607,11.186 3.738,7.947 1.869,11.186 	"/>
	<polygon fill="#010101" fill-opacity="0.2" points="5.607,11.186 3.738,14.423 1.869,11.186 	"/>
	<polygon fill="#010101" fill-opacity="0.2" points="16.824,4.71 14.955,1.472 13.084,4.71 	"/>
	<polygon fill="#FFFFFF" fill-opacity="0" points="16.824,4.71 14.955,7.947 13.084,4.71 	"/>
	<g>
		<polygon fill="#FFFFFF" fill-opacity="0.2" points="14.955,7.947 16.824,4.71 18.693,7.947 		"/>
		<polygon fill="#FFFFFF" fill-opacity="0.1" points="14.955,7.947 16.824,11.186 18.693,7.947 		"/>
		<polygon fill="#FFFFFF" fill-opacity="0" points="13.084,11.186 14.955,7.947 16.824,11.186 		"/>
		<polygon fill="#010101" fill-opacity="0.1" points="13.084,11.186 14.955,14.423 16.824,11.186 		"/>
		<polygon fill="#010101" fill-opacity="0.2" points="11.217,14.423 13.084,11.186 14.955,14.423 		"/>
	</g>
</g>
</svg>
