<?xml version="1.0" encoding="utf-8"?>
<!-- Generator: Adobe Illustrator 17.1.0, SVG Export Plug-In . SVG Version: 6.00 Build 0)  -->
<!DOCTYPE svg PUBLIC "-//W3C//DTD SVG 1.1//EN" "http://www.w3.org/Graphics/SVG/1.1/DTD/svg11.dtd">
<svg version="1.1" id="Layer_1" xmlns="http://www.w3.org/2000/svg" xmlns:xlink="http://www.w3.org/1999/xlink" x="0px" y="0px"
	 viewBox="0 583.321 792.004 57.362" enable-background="new 0 583.321 792.004 57.362" xml:space="preserve">
<g>
	<g>
		<path fill="#FFFFFF" d="M0,636.108h11.639v-48.212H0v-4.575h66.75l10.059,10.059v11.136l-8.314,8.314l8.31,8.314v12.716
			l2.247,2.247h6.236v4.571h-8.813l-4.905-4.905v-12.716l-7.478-7.482H16.873v20.536h16.628v4.571H0V636.108z M63.091,611.005
			l8.394-8.398v-7.397l-7.313-7.313H16.873v23.109C16.873,611.005,63.091,611.005,63.091,611.005z"/>
		<path fill="#FFFFFF" d="M114.889,636.108h11.639v-48.212h-11.639v-4.575h72.736v16.459h-4.74v-11.884h-51.123v21.694h47.963v4.571
			h-47.963v21.947h51.203v-12.222h4.74v16.793h-72.816V636.108z"/>
		<path fill="#FFFFFF" d="M227.704,628.956v-33.912l11.723-11.723h46.467l8.809,8.813v6.814h-5.239v-4.905l-6.151-6.151h-41.313
			l-9.062,9.066v30.088l9.062,9.062h39.649l9.062-9.062v-10.477H260.12v-4.567h35.829v16.958l-11.723,11.719h-44.799
			L227.704,628.956z"/>
		<path fill="#FFFFFF" d="M329.455,636.108h12.97v-48.212h-12.97v-4.575h31.174v4.575h-12.97v48.212h12.97v4.571h-31.174V636.108z"
			/>
		<path fill="#FFFFFF" d="M395.216,631.452v-6.151h5.234v4.241l6.569,6.569h42.475l7.478-7.482v-9.231l-5.902-5.902h-47.299
			l-8.559-8.563V593.46l10.143-10.139h46.797l9.227,9.227v6.151h-5.234v-4.241l-6.569-6.565h-41.643l-7.482,7.478v7.651l5.906,5.902
			h47.295l8.563,8.563v13.05l-10.139,10.139h-47.629L395.216,631.452z"/>
		<path fill="#FFFFFF" d="M516.007,636.108h14.63v-48.212h-28.512v16.041h-4.74v-20.616h71.739v20.616h-4.74v-16.041h-28.512v48.212
			h14.63v4.571h-34.495L516.007,636.108L516.007,636.108z"/>
		<path fill="#FFFFFF" d="M599.305,636.108h11.639v-48.212h-11.639v-4.575h72.736v16.459h-4.74v-11.884h-51.123v21.694h47.963v4.571
			h-47.963v21.947h51.203v-12.222h4.74v16.793h-72.816L599.305,636.108L599.305,636.108z"/>
		<path fill="#FFFFFF" d="M706.712,636.108h11.639v-48.212h-11.639v-4.575h66.75l10.059,10.059v11.136l-8.31,8.31l8.31,8.314v12.716
			l2.247,2.247h6.236v4.571h-8.813l-4.905-4.905v-12.712l-7.478-7.482h-47.215v20.536h16.628v4.571H706.72v-4.575H706.712z
			 M769.804,611.005l8.394-8.398v-7.397l-7.313-7.313h-47.299v23.109C723.586,611.005,769.804,611.005,769.804,611.005z"/>
	</g>
</g>
</svg>
