<?xml version="1.0" encoding="utf-8"?>
<!-- Generator: Adobe Illustrator 17.1.0, SVG Export Plug-In . SVG Version: 6.00 Build 0)  -->
<!DOCTYPE svg PUBLIC "-//W3C//DTD SVG 1.1//EN" "http://www.w3.org/Graphics/SVG/1.1/DTD/svg11.dtd">
<svg version="1.1" id="Layer_1" xmlns="http://www.w3.org/2000/svg" xmlns:xlink="http://www.w3.org/1999/xlink" x="0px" y="0px"
	 viewBox="0 0 24.166 19.638" enable-background="new 0 0 24.166 19.638" xml:space="preserve">
<path fill="#D0D8DC" d="M24.166,2.325c-0.889,0.394-1.844,0.66-2.848,0.78c1.023-0.614,1.812-1.585,2.182-2.744
	c-0.959,0.568-2.018,0.983-3.148,1.204C19.445,0.601,18.158,0,16.732,0c-2.738,0-4.957,2.221-4.957,4.957
	c0,0.39,0.043,0.768,0.127,1.13c-4.121-0.205-7.773-2.18-10.221-5.18C1.258,1.64,1.012,2.491,1.012,3.4
	c0,1.719,0.875,3.238,2.205,4.126c-0.812-0.024-1.576-0.25-2.246-0.62v0.062c0,2.402,1.709,4.405,3.977,4.861
	c-0.414,0.112-0.853,0.175-1.307,0.175c-0.318,0-0.629-0.031-0.932-0.091c0.631,1.971,2.461,3.403,4.631,3.444
	c-1.695,1.33-3.834,2.123-6.156,2.123c-0.4,0-0.795-0.024-1.184-0.069c2.193,1.405,4.801,2.226,7.602,2.226
	c9.119,0,14.105-7.552,14.105-14.105c0-0.215-0.006-0.427-0.012-0.643C22.662,4.192,23.5,3.32,24.166,2.325z"/>
</svg>
