<?xml version="1.0" encoding="utf-8"?>
<!-- Generator: Adobe Illustrator 16.0.0, SVG Export Plug-In . SVG Version: 6.00 Build 0)  -->
<!DOCTYPE svg PUBLIC "-//W3C//DTD SVG 1.1//EN" "http://www.w3.org/Graphics/SVG/1.1/DTD/svg11.dtd">
<svg version="1.1" id="Layer_1" xmlns="http://www.w3.org/2000/svg" xmlns:xlink="http://www.w3.org/1999/xlink" x="0px" y="0px"
	 width="612px" height="792px" viewBox="0 0 612 792" enable-background="new 0 0 612 792" xml:space="preserve">
<path fill="#5FA9DD" d="M612,206.216c-22.514,9.978-46.699,16.714-72.125,19.753c25.907-15.55,45.889-40.14,55.259-69.492
	c-24.286,14.385-51.104,24.895-79.723,30.491c-22.97-24.413-55.562-39.633-91.676-39.633c-69.341,0-125.535,56.247-125.535,125.535
	c0,9.877,1.089,19.45,3.216,28.617c-104.363-5.192-196.85-55.208-258.845-131.183c-10.712,18.563-16.942,40.114-16.942,63.135
	c0,43.533,22.159,82.002,55.841,104.49c-20.564-0.608-39.912-6.331-56.88-15.702v1.57c0,60.83,43.28,111.557,100.717,123.104
	c-10.484,2.836-21.602,4.432-33.1,4.432c-8.053,0-15.929-0.785-23.603-2.305c15.98,49.915,62.324,86.181,117.279,87.219
	c-42.926,33.682-97.095,53.765-155.9,53.765c-10.13,0-20.133-0.606-29.984-1.747c55.538,35.581,121.584,56.373,192.52,56.373
	c230.938,0,357.207-191.254,357.207-357.207c0-5.445-0.151-10.814-0.305-16.284C573.911,253.497,595.134,231.414,612,206.216z"/>
</svg>
